<svg width="18" height="18" viewBox="0 0 18 18" fill="none" xmlns="http://www.w3.org/2000/svg">
<path fill-rule="evenodd" clip-rule="evenodd" d="M12.502 11H11.708L11.432 10.726C12.407 9.58903 13 8.11503 13 6.50003C13 2.91003 10.09 2.86102e-05 6.5 2.86102e-05C2.91 2.86102e-05 0 2.91003 0 6.50003C0 10.09 2.91 13 6.5 13C8.115 13 9.588 12.408 10.725 11.434L11.001 11.708V12.5L15.999 17.491L17.49 16L12.502 11ZM6.5 11C4.014 11 2 8.98603 2 6.50003C2 4.01503 4.014 2.00003 6.5 2.00003C8.985 2.00003 11 4.01503 11 6.50003C11 8.98603 8.985 11 6.5 11Z" fill="white"/>
</svg>
